# xmcd CD database file
#
# Track frame offsets:
#	150
#	26529
#	55214
#	76760
#	96932
#	120876
#	141404
#	166543
#
# Disc length: 2802 seconds
#
# Revision: 0
# Processed by: cddbd v1.5.2PL0 Copyright (c) Steve Scherf et al.
# Submitted via: CDex 1.51
#
DISCID=560af008
DTITLE=Betka Fislova - More Than Black and White
DYEAR=2005
DGENRE=Jazz
TTITLE0=Fingers I
TTITLE1=Good-Bye, Babel
TTITLE2=LAV
TTITLE3=Into the fear
TTITLE4=Slova
TTITLE5=I'm no robot
TTITLE6=Whose I am
TTITLE7=Fingers III
EXTD=YEAR: 2005
EXTT0=
EXTT1=
EXTT2=
EXTT3=
EXTT4=
EXTT5=
EXTT6=
EXTT7=
PLAYORDER=
